<?xml version="1.0" encoding="UTF-8" standalone="no"?>
<!-- Created with Inkscape (http://www.inkscape.org/) -->

<svg
   xmlns:dc="http://purl.org/dc/elements/1.1/"
   xmlns:cc="http://creativecommons.org/ns#"
   xmlns:rdf="http://www.w3.org/1999/02/22-rdf-syntax-ns#"
   xmlns:svg="http://www.w3.org/2000/svg"
   xmlns="http://www.w3.org/2000/svg"
   xmlns:sodipodi="http://sodipodi.sourceforge.net/DTD/sodipodi-0.dtd"
   xmlns:inkscape="http://www.inkscape.org/namespaces/inkscape"
   width="256"
   height="256"
   viewBox="0 0 256 256"
   id="svg2"
   version="1.1"
   inkscape:version="0.91 r13725"
   sodipodi:docname="grammy.svg"
   inkscape:export-filename="C:\Users\brassers_pov\Dropbox\projects\wrecords.ru static\public\img\grammy.png"
   inkscape:export-xdpi="90"
   inkscape:export-ydpi="90">
  <defs
     id="defs4" />
  <sodipodi:namedview
     id="base"
     pagecolor="#ffffff"
     bordercolor="#666666"
     borderopacity="1.0"
     inkscape:pageopacity="0.0"
     inkscape:pageshadow="2"
     inkscape:zoom="1.5006058"
     inkscape:cx="4.7918744"
     inkscape:cy="190.72471"
     inkscape:document-units="px"
     inkscape:current-layer="layer4"
     showgrid="false"
     showguides="true"
     inkscape:guide-bbox="true"
     inkscape:window-width="1366"
     inkscape:window-height="745"
     inkscape:window-x="-8"
     inkscape:window-y="-8"
     inkscape:window-maximized="1"
     units="px">
    <sodipodi:guide
       position="525.71429,230"
       orientation="1,0"
       id="guide4138" />
    <sodipodi:guide
       position="150,377.14286"
       orientation="0,1"
       id="guide4140" />
  </sodipodi:namedview>
  <metadata
     id="metadata7">
    <rdf:RDF>
      <cc:Work
         rdf:about="">
        <dc:format>image/svg+xml</dc:format>
        <dc:type
           rdf:resource="http://purl.org/dc/dcmitype/StillImage" />
        <dc:title />
      </cc:Work>
    </rdf:RDF>
  </metadata>
  <g
     inkscape:label="Layer 1"
     inkscape:groupmode="layer"
     id="layer1"
     transform="translate(0,-796.36219)" />
  <g
     inkscape:groupmode="layer"
     id="layer4"
     inkscape:label="Layer 2">
    <path
       style="fill:#4d4d4d"
       d="m 122.97364,209.89265 c -5.65125,-0.80473 -33.839238,-4.75072 -56.704032,-7.9379 -3.499275,-0.48778 -6.381504,-0.90603 -6.404963,-0.92949 -0.04082,-0.0409 1.092229,-2.17563 4.43454,-8.35534 6.907828,-12.77208 10.704161,-19.78768 12.242657,-22.62438 0.993297,-1.83151 2.27462,-4.21147 2.847344,-5.28883 0.572715,-1.07736 1.066007,-1.98994 1.096177,-2.02798 0.03022,-0.0381 1.713251,0.16395 3.740146,0.44885 2.026878,0.28489 5.227803,0.73128 7.113172,0.99199 1.885358,0.26071 8.540457,1.18568 14.789099,2.05548 6.24864,0.86978 14.1843,1.974 17.63483,2.45382 l 6.27364,0.87239 12.62899,-1.75435 c 6.94593,-0.96488 18.08033,-2.51283 24.74312,-3.43989 6.66274,-0.92705 12.13961,-1.65711 12.17075,-1.62234 0.0589,0.0657 4.29022,7.855 8.86617,16.32143 1.45573,2.69337 3.19796,5.91075 3.87164,7.1497 5.55707,10.21997 7.96304,14.72565 7.89801,14.7907 -0.0419,0.0419 -5.75895,0.87096 -12.70441,1.84221 -6.94544,0.97123 -20.86983,2.91772 -30.94306,4.32553 -10.07326,1.40779 -20.16608,2.82132 -22.42853,3.14115 -2.26243,0.31983 -4.20167,0.57118 -4.3094,0.55858 -0.10777,-0.0126 -3.19289,-0.44971 -6.85589,-0.97133 z m 4.21147,-45.33694 c -0.91575,-0.13994 -9.00323,-1.29114 -17.9722,-2.5582 l -16.307167,-2.30378 0,-14.48308 0,-14.4831 0.636611,0.11246 c 0.350134,0.0619 8.173196,1.17454 17.384526,2.47259 9.21137,1.29804 17.27683,2.43841 17.92325,2.53413 1.0279,0.15221 3.50158,-0.15512 19.72722,-2.45079 10.20356,-1.44365 18.60013,-2.62482 18.65906,-2.62482 0.0589,0 0.0845,6.50084 0.0568,14.4463 l -0.0502,14.44631 -18.02115,2.58125 c -9.91164,1.41969 -18.55003,2.57761 -19.19645,2.57318 -0.64642,-0.005 -1.92454,-0.12256 -2.84031,-0.26249 z m -2.54647,-33.91631 c -8.43874,-0.2287 -16.77155,-1.32126 -18.21704,-2.3885 -0.4759,-0.35137 -0.49124,-0.43776 -0.54438,-3.06143 -0.0467,-2.31258 -0.006,-2.75245 0.2771,-3.06648 1.59104,-1.75806 16.79881,-3.05495 29.80797,-2.54196 9.47174,0.37348 15.3284,1.11263 17.52001,2.2111 l 0.73457,0.36818 0,2.93026 0,2.93027 -0.73457,0.36655 c -3.23458,1.61405 -15.89903,2.60287 -28.84366,2.25201 z m 38.1255,-5.914 c -2.67886,-0.39171 -4.85925,-0.77748 -4.8453,-0.85728 0.0139,-0.0798 0.42934,-0.76965 0.92315,-1.53296 1.78911,-2.76569 2.67471,-6.41776 2.23831,-9.23041 -0.12211,-0.7871 -0.28397,-1.48215 -0.35967,-1.54452 -0.14235,-0.11738 -26.62551,3.59649 -26.73111,3.74858 -0.0327,0.0471 -0.17981,0.32468 -0.32696,0.61691 -1.1135,2.21144 -3.80996,2.96761 -5.72942,1.6067 -2.3867,-1.69216 -2.86369,-6.0153 -0.92341,-8.36917 1.67277,-2.02937 4.39072,-2.04064 6.1498,-0.0255 l 0.58764,0.67318 12.04676,-1.69288 c 6.62571,-0.93108 12.1232,-1.76102 12.21665,-1.84429 0.0935,-0.0833 -0.25224,-0.60271 -0.76823,-1.15433 -3.52177,-3.76506 -10.89906,-6.162092 -25.34806,-8.236117 -6.16031,-0.884263 -14.51029,-1.559478 -19.36241,-1.565749 l -0.84354,-8.9e-4 1.64852,-2.007788 c 6.49655,-7.91243 12.3999,-18.787018 15.52118,-28.591603 l 0.73044,-2.294418 1.42643,2.037484 c 7.31379,10.446937 15.15003,18.429451 27.41341,27.925047 7.44216,5.762492 10.56667,10.231674 11.7725,16.838914 0.46902,2.57004 0.46602,7.73619 -0.005,9.89204 -0.55032,2.51477 -2.01987,6.39742 -2.40108,6.34379 -0.0876,-0.0123 -2.351,-0.34287 -5.02984,-0.73456 z M 88.739615,104.12167 c -2.768375,-0.4592 -4.586808,-2.44548 -5.674358,-6.198131 -0.402113,-1.387517 -0.442603,-1.93025 -0.435634,-5.839116 0.0081,-4.647672 0.160476,-5.879368 1.282608,-10.381752 5.083174,-20.395402 21.258379,-42.279822 33.546659,-45.387264 6.34177,-1.603706 9.91374,2.502416 9.91847,11.401711 0.006,12.661041 -7.52969,30.635394 -18.27404,43.58355 -1.57182,1.894202 -5.6307,5.983808 -7.28494,7.340088 -2.947264,2.416384 -5.691278,4.036814 -8.266293,4.881514 -1.949166,0.63939 -3.446797,0.82592 -4.812472,0.5994 z"
       id="path5224"
       inkscape:connector-curvature="0"
       sodipodi:nodetypes="sssssscsssscsscsssssscscsccccssssscssccssscsccccssccsccccssscscssccsscssscsccsscsssssss"
       inkscape:export-filename="C:\Users\brassers_pov\Dropbox\projects\wrecords.ru static\public\img\grammy.png"
       inkscape:export-xdpi="90"
       inkscape:export-ydpi="90" />
  </g>
</svg>
