<?xml version="1.0" encoding="UTF-8" standalone="no"?>
<!-- Created with Inkscape (http://www.inkscape.org/) -->

<svg
   xmlns:dc="http://purl.org/dc/elements/1.1/"
   xmlns:cc="http://creativecommons.org/ns#"
   xmlns:rdf="http://www.w3.org/1999/02/22-rdf-syntax-ns#"
   xmlns:svg="http://www.w3.org/2000/svg"
   xmlns="http://www.w3.org/2000/svg"
   xmlns:sodipodi="http://sodipodi.sourceforge.net/DTD/sodipodi-0.dtd"
   xmlns:inkscape="http://www.inkscape.org/namespaces/inkscape"
   width="256"
   height="256"
   viewBox="0 0 256 256"
   id="svg2"
   version="1.1"
   inkscape:version="0.91 r13725"
   sodipodi:docname="hh.svg"
   inkscape:export-filename="C:\Users\brassers_pov\Dropbox\projects\wrecords.ru static\public\img\hh.png"
   inkscape:export-xdpi="90"
   inkscape:export-ydpi="90">
  <defs
     id="defs4" />
  <sodipodi:namedview
     id="base"
     pagecolor="#ffffff"
     bordercolor="#666666"
     borderopacity="1.0"
     inkscape:pageopacity="0.0"
     inkscape:pageshadow="2"
     inkscape:zoom="0.7"
     inkscape:cx="333.84702"
     inkscape:cy="94.207172"
     inkscape:document-units="px"
     inkscape:current-layer="layer1"
     showgrid="false"
     showguides="true"
     inkscape:guide-bbox="true"
     inkscape:window-width="1366"
     inkscape:window-height="745"
     inkscape:window-x="-8"
     inkscape:window-y="-8"
     inkscape:window-maximized="1"
     units="px">
    <sodipodi:guide
       position="525.71429,230"
       orientation="1,0"
       id="guide4138" />
    <sodipodi:guide
       position="150,377.14286"
       orientation="0,1"
       id="guide4140" />
  </sodipodi:namedview>
  <metadata
     id="metadata7">
    <rdf:RDF>
      <cc:Work
         rdf:about="">
        <dc:format>image/svg+xml</dc:format>
        <dc:type
           rdf:resource="http://purl.org/dc/dcmitype/StillImage" />
        <dc:title></dc:title>
      </cc:Work>
    </rdf:RDF>
  </metadata>
  <g
     inkscape:groupmode="layer"
     id="layer2"
     inkscape:label="Layer 2"
     transform="translate(0,-488.09448)">
    <rect
       style="fill:#999999;stroke:none"
       id="rect4180"
       width="222.42322"
       height="53.708271"
       x="17.689796"
       y="577.00507"
       ry="6.8780098" />
  </g>
  <g
     inkscape:groupmode="layer"
     id="layer3"
     inkscape:label="Layer 3"
     transform="translate(0,-488.09448)">
    <rect
       transform="scale(-1,-1)"
       style="fill:#ffffff;stroke:none"
       id="rect4195"
       width="17.832764"
       height="34.578575"
       x="-55.300705"
       y="-630.68726"
       rx="7.2952151"
       ry="7.2952151" />
    <rect
       transform="scale(-1,-1)"
       style="fill:#ffffff;stroke:none"
       id="rect4195-8"
       width="17.832764"
       height="34.578575"
       x="-82.762665"
       y="-630.68726"
       rx="7.2952151"
       ry="7.2952151" />
    <rect
       transform="scale(-1,-1)"
       style="fill:#ffffff;stroke:none"
       id="rect4195-5"
       width="17.832764"
       height="34.578575"
       x="-110.22463"
       y="-630.68726"
       rx="7.2952151"
       ry="7.2952151" />
    <rect
       transform="scale(-1,-1)"
       style="fill:#ffffff;stroke:none"
       id="rect4195-8-6"
       width="17.832764"
       height="34.578575"
       x="-137.6866"
       y="-630.68726"
       rx="7.2952151"
       ry="7.2952151" />
    <rect
       transform="scale(-1,-1)"
       style="fill:#ffffff;stroke:none"
       id="rect4195-9"
       width="10.882511"
       height="21.101709"
       x="-158.14787"
       y="-626.67767"
       rx="4.4519324"
       ry="4.4519324" />
    <rect
       transform="scale(-1,-1)"
       style="fill:#ffffff;stroke:none"
       id="rect4195-8-8"
       width="10.882511"
       height="21.101709"
       x="-178.65959"
       y="-626.67767"
       rx="4.4519324"
       ry="4.4519324" />
    <rect
       transform="scale(-1,-1)"
       style="fill:#ffffff;stroke:none"
       id="rect4195-5-4"
       width="10.882511"
       height="21.101709"
       x="-199.17131"
       y="-626.67767"
       rx="4.4519324"
       ry="4.4519324" />
    <rect
       transform="scale(-1,-1)"
       style="fill:#ffffff;stroke:none"
       id="rect4195-8-6-2"
       width="10.882511"
       height="21.101709"
       x="-219.68303"
       y="-626.67767"
       rx="4.4519324"
       ry="4.4519324" />
  </g>
  <g
     inkscape:label="Layer 1"
     inkscape:groupmode="layer"
     id="layer1"
     transform="translate(0,-796.36219)">
    <path
       style="fill:#4d4d4d;fill-rule:evenodd;stroke:none;stroke-width:1px;stroke-linecap:butt;stroke-linejoin:miter;stroke-opacity:1"
       d="m 18.011607,880.74742 c -3.805435,0 -6.869587,3.06353 -6.869587,6.86896 l 0,73.84206 c 0,3.80542 3.064152,6.86894 6.869587,6.86894 l 220.113763,0 c 3.80541,0 6.86896,-3.06352 6.86896,-6.86894 l 0,-73.84206 c 0,-3.80543 -3.06355,-6.86896 -6.86896,-6.86896 l -220.113763,0 z m 6.886508,7.33663 206.340115,0 c 3.81042,0 6.87836,3.06731 6.87836,6.87773 l 0,27.51218 c 0,3.81042 -3.06794,6.87773 -6.87836,6.87773 l -206.340115,0 c -3.81042,0 -6.877734,-3.06731 -6.877734,-6.87773 l 0,-27.51218 c 0,-3.81042 3.067314,-6.87773 6.877734,-6.87773 z"
       id="rect3336"
       inkscape:connector-curvature="0" />
    <circle
       style="fill:#999999;stroke:none"
       id="path4272-0"
       cx="83.224571"
       cy="953.69226"
       r="4.0529008" />
    <circle
       style="fill:#999999;stroke:none"
       id="path4272-0-5"
       cx="96.144966"
       cy="953.69226"
       r="4.0529008" />
    <circle
       style="fill:#999999;stroke:none"
       id="path4272-0-2"
       cx="109.06538"
       cy="953.69226"
       r="4.0529008" />
    <circle
       style="fill:#999999;stroke:none"
       id="path4272-0-8"
       cx="121.98577"
       cy="953.69226"
       r="4.0529008" />
    <circle
       style="fill:#999999;stroke:none"
       id="path4272-0-53"
       cx="134.90617"
       cy="953.69226"
       r="4.0529008" />
    <circle
       style="fill:#999999;stroke:none"
       id="path4272-0-80"
       cx="160.74698"
       cy="953.69226"
       r="4.0529008" />
    <circle
       style="fill:#999999;stroke:none"
       id="path4272-0-5-4"
       cx="173.66739"
       cy="953.69226"
       r="4.0529008" />
    <circle
       style="fill:#999999;stroke:none"
       id="path4272-0-2-1"
       cx="186.58778"
       cy="953.69226"
       r="4.0529008" />
    <circle
       style="fill:#999999;stroke:none"
       id="path4272-0-8-5"
       cx="199.50819"
       cy="953.69226"
       r="4.0529008" />
    <circle
       style="fill:#999999;stroke:none"
       id="path4272-0-53-1"
       cx="212.42859"
       cy="953.69226"
       r="4.0529008" />
    <rect
       style="fill:#999999;stroke:none"
       id="rect4386"
       width="4.3560681"
       height="4.3560681"
       x="57.33952"
       y="947.00537"
       rx="1.9661576"
       ry="1.7771045" />
    <rect
       style="fill:#999999;stroke:none"
       id="rect4386-1"
       width="4.3560681"
       height="4.3560681"
       x="52.020538"
       y="947.00537"
       rx="1.9661576"
       ry="1.7771045" />
    <rect
       style="fill:#999999;stroke:none"
       id="rect4386-6"
       width="4.3560681"
       height="4.3560681"
       x="52.020538"
       y="956.17603"
       rx="1.9661576"
       ry="1.7771045" />
    <rect
       style="fill:#999999;stroke:none"
       id="rect4386-8"
       width="4.3560681"
       height="4.3560681"
       x="67.977509"
       y="947.00537"
       rx="1.9661576"
       ry="1.7771045" />
    <rect
       style="fill:#999999;stroke:none"
       id="rect4386-7"
       width="4.3560681"
       height="4.3560681"
       x="62.658524"
       y="956.17603"
       rx="1.9661576"
       ry="1.7771045" />
    <rect
       style="fill:#999999;stroke:none"
       id="rect4386-5"
       width="4.3560681"
       height="4.3560681"
       x="57.33952"
       y="956.17603"
       rx="1.9661576"
       ry="1.7771045" />
    <rect
       style="fill:#999999;stroke:none"
       id="rect4386-3"
       width="4.3560681"
       height="4.3560681"
       x="67.977509"
       y="956.17603"
       rx="1.9661576"
       ry="1.7771045" />
    <rect
       style="fill:#999999;stroke:none"
       id="rect4386-0"
       width="4.3560681"
       height="4.3560681"
       x="62.658524"
       y="947.00537"
       rx="1.9661576"
       ry="1.7771045" />
    <circle
       style="fill:#999999;stroke:none"
       id="path4272-0-9"
       cx="40.985626"
       cy="953.88336"
       r="4.0529008" />
    <circle
       style="fill:#999999;stroke:none"
       id="path4272-0-9-5"
       cx="28.065212"
       cy="953.88336"
       r="4.0529008" />
    <rect
       style="fill:#4d4d4d;stroke:none"
       id="rect4479"
       width="2.1885667"
       height="3.9718425"
       x="27.011459"
       y="950.35577"
       rx="0.13022853"
       ry="1.7322131" />
    <rect
       style="fill:#4d4d4d;stroke:none"
       id="rect4479-7"
       width="2.1885667"
       height="3.9718425"
       x="39.792149"
       y="950.35577"
       rx="0.13022853"
       ry="1.7322131" />
    <path
       style="fill:#4d4d4d;stroke:none"
       d="m 126.57395,868.07587 c -7.69787,-0.0201 -16.32991,1.3774 -25.02715,5.53993 -0.004,-0.004 -0.007,-0.0156 -0.0113,-0.0156 l -16.274979,0 c -0.07214,0 -0.130393,0.77311 -0.130393,1.73276 l 0,4.64094 c 0,0.95965 0.05822,1.73213 0.130393,1.73213 l 8.527736,0 c -5.251257,5.99515 -9.119331,11.44564 5.54118,0 l 2.206063,0 c 0.0721,0 0.1304,-0.77248 0.1304,-1.73213 l 0,-0.0752 c 23.25546,-17.31312 47.55311,-3.15497 52.15253,-0.17177 l 0,0.247 c 0,0.95965 0.0582,1.73213 0.13039,1.73213 l 16.27499,0 c 0.0721,0 0.13039,-0.77248 0.13039,-1.73213 l 0,-4.64094 c 0,-0.95965 -0.0582,-1.73276 -0.13039,-1.73276 l -16.27499,0 c -0.0285,0 -0.0532,0.14622 -0.0746,0.35169 -2.81219,-1.30849 -13.52552,-5.83993 -27.30029,-5.87594 z"
       id="rect4564"
       inkscape:connector-curvature="0" />
  </g>
</svg>
