<svg xmlns="http://www.w3.org/2000/svg" viewBox="0 0 206.87 63.93"><title>wr-logo-2</title><path d="M120.27,26.14l4.14,10.51,0.9,3.46h0.07l0.68-3.53,3.21-10.44H132l-6,18.4h-1.4l-4.72-11.88-0.68-3H119l-0.72,3-4.54,11.84h-1.4l-6.26-18.4h3.13l3.56,10.48,0.61,3.49h0l0.86-3.56,3.85-10.4h2.09Z" transform="translate(-36.24 -18.94)" style="fill:#012"/><path d="M132.37,35.14q0-4.57,2-7a7.2,7.2,0,0,1,5.85-2.43,8.57,8.57,0,0,1,3.51.67,6.37,6.37,0,0,1,2.46,1.91,8.24,8.24,0,0,1,1.44,3,15,15,0,0,1,.47,3.87q0,4.57-2,7a7.2,7.2,0,0,1-5.85,2.43,8.56,8.56,0,0,1-3.51-.67A6.35,6.35,0,0,1,134.27,42a8.24,8.24,0,0,1-1.44-3A15,15,0,0,1,132.37,35.14Zm3,0a12.53,12.53,0,0,0,.27,2.63,6.92,6.92,0,0,0,.85,2.2A4.56,4.56,0,0,0,138,41.47a4.25,4.25,0,0,0,2.27.58q4.9,0,4.9-6.91a12.71,12.71,0,0,0-.27-2.66,7,7,0,0,0-.85-2.2,4.41,4.41,0,0,0-1.51-1.49,4.36,4.36,0,0,0-2.27-.56Q135.35,28.19,135.35,35.14Z" transform="translate(-36.24 -18.94)" style="fill:#012"/><path d="M162.93,44.14V33.88a8.75,8.75,0,0,0-.81-4.23,3.12,3.12,0,0,0-3-1.42,4.78,4.78,0,0,0-3.15,1,5.47,5.47,0,0,0-1.75,2.57V44.14h-2.88v-18h2l0.54,2.2h0.14a6.52,6.52,0,0,1,2.32-1.89,7.62,7.62,0,0,1,3.47-.74,8.86,8.86,0,0,1,2.59.34,3.88,3.88,0,0,1,1.85,1.21,5.74,5.74,0,0,1,1.12,2.32,15,15,0,0,1,.38,3.69V44.14h-2.88Z" transform="translate(-36.24 -18.94)" style="fill:#012"/><path d="M183.59,37.95q0,1.84,0,3.33a16.82,16.82,0,0,0,.32,2.93H182l-0.72-2.56h-0.14a5.8,5.8,0,0,1-2.09,2.09,6.07,6.07,0,0,1-3.2.83,6.32,6.32,0,0,1-5.35-2.27q-1.75-2.27-1.75-7.09,0-4.61,2.18-7a7.7,7.7,0,0,1,6-2.39A12.18,12.18,0,0,1,179,26a10.84,10.84,0,0,1,1.67.47V18.94h2.88v19ZM176.32,42a4.24,4.24,0,0,0,2.92-1,5.09,5.09,0,0,0,1.48-2.9V29.27a4,4,0,0,0-1.48-.72,9,9,0,0,0-2.2-.22A4.85,4.85,0,0,0,173.15,30q-1.4,1.64-1.4,5.24a15,15,0,0,0,.23,2.74,6.47,6.47,0,0,0,.77,2.16,4,4,0,0,0,1.42,1.42A4.13,4.13,0,0,0,176.32,42Z" transform="translate(-36.24 -18.94)" style="fill:#012"/><path d="M201,42.7a8.14,8.14,0,0,1-2.72,1.37,11.76,11.76,0,0,1-3.47.5,8.79,8.79,0,0,1-3.56-.67A6.34,6.34,0,0,1,188.74,42a8.23,8.23,0,0,1-1.44-3,14.86,14.86,0,0,1-.47-3.89q0-4.61,2.05-7a7.28,7.28,0,0,1,5.87-2.41,11.35,11.35,0,0,1,2.45.27A5.17,5.17,0,0,1,201,29.14a9.16,9.16,0,0,1,.61,3.65,17.88,17.88,0,0,1-.21,2.63H189.82a11,11,0,0,0,.32,2.81,5.46,5.46,0,0,0,1,2.07,4.36,4.36,0,0,0,1.78,1.3,7.07,7.07,0,0,0,2.68.45,7.32,7.32,0,0,0,2.45-.43,5.21,5.21,0,0,0,1.84-1Zm-6.19-14.47a5,5,0,0,0-3.4,1.12,5.58,5.58,0,0,0-1.53,3.82h8.93a5.54,5.54,0,0,0-1-3.83A3.88,3.88,0,0,0,194.79,28.23Z" transform="translate(-36.24 -18.94)" style="fill:#012"/><path d="M213.33,28.91a6.5,6.5,0,0,0-2.05-.36,3.43,3.43,0,0,0-2.45.85,3.68,3.68,0,0,0-1.12,2.14v12.6h-2.88v-18h2l0.54,2.2h0.14a5.55,5.55,0,0,1,1.64-1.89,4.15,4.15,0,0,1,2.43-.67,8.83,8.83,0,0,1,2.34.36Z" transform="translate(-36.24 -18.94)" style="fill:#012"/><path d="M116.21,57.89a2.85,2.85,0,0,1,1.35-.68,8.82,8.82,0,0,1,1.89-.18h1.8l0.72,0L120.53,65a6.62,6.62,0,0,0-.86-0.36,8.41,8.41,0,0,0-.83-0.25,3.4,3.4,0,0,0-.83-0.11,3,3,0,0,0-2.3,1,4.2,4.2,0,0,0-.94,2.93v7.92h-8.64V57.06h8.28l0.72,2.16A6.28,6.28,0,0,1,116.21,57.89Z" transform="translate(-36.24 -18.94)" style="fill:#3f76aa"/><path d="M131.87,57a10.6,10.6,0,0,1,3.92.73,10.3,10.3,0,0,1,3.2,2,9.35,9.35,0,0,1,2.16,2.93,8.33,8.33,0,0,1,.79,3.59v1.65H130.43a2.28,2.28,0,0,0,.54,1,2.59,2.59,0,0,0,1,.68,4.32,4.32,0,0,0,1.73.29,3.71,3.71,0,0,0,1.28-.22,4.78,4.78,0,0,0,1-.5,6.91,6.91,0,0,0,.94-0.72L140,73.29A8.88,8.88,0,0,1,138,74.73a13.26,13.26,0,0,1-2.38,1,10.61,10.61,0,0,1-3.24.45,11.67,11.67,0,0,1-4.25-.75,10.61,10.61,0,0,1-3.37-2.05,9.26,9.26,0,0,1-2.21-3,9.17,9.17,0,0,1,0-7.46,9.64,9.64,0,0,1,2.16-3A10.33,10.33,0,0,1,131.87,57Zm1.62,7.45a1,1,0,0,0-.47-0.86,2.45,2.45,0,0,0-2.3,0,1,1,0,0,0-.47.86h3.24Z" transform="translate(-36.24 -18.94)" style="fill:#3f76aa"/><path d="M152.21,66.6a1.94,1.94,0,0,0,.76,1.6,3.33,3.33,0,0,0,2.12.6,4.48,4.48,0,0,0,1.28-.18,5.31,5.31,0,0,0,1-.41,6.84,6.84,0,0,0,.94-0.58l3.6,5.49a9,9,0,0,1-2.09,1.55,13.63,13.63,0,0,1-2.56,1,12.64,12.64,0,0,1-7.7-.28,10.6,10.6,0,0,1-3.37-2.05,9.25,9.25,0,0,1-2.21-3,9.18,9.18,0,0,1,0-7.46,9.26,9.26,0,0,1,2.21-3,10.59,10.59,0,0,1,3.37-2.05,11.67,11.67,0,0,1,4.25-.75,11.27,11.27,0,0,1,3.46.49,14.48,14.48,0,0,1,2.56,1.06,9.67,9.67,0,0,1,2.09,1.51l-3.6,5.49A7,7,0,0,0,157.4,65a5.38,5.38,0,0,0-1-.41,4.5,4.5,0,0,0-1.28-.18A3.34,3.34,0,0,0,153,65,1.94,1.94,0,0,0,152.21,66.6Z" transform="translate(-36.24 -18.94)" style="fill:#3f76aa"/><path d="M162.83,66.6a8.74,8.74,0,0,1,.81-3.73,9.38,9.38,0,0,1,2.25-3,10.63,10.63,0,0,1,3.46-2.05,13.55,13.55,0,0,1,8.91,0,10.61,10.61,0,0,1,3.47,2.05,9.4,9.4,0,0,1,2.25,3,9,9,0,0,1,0,7.46,9.4,9.4,0,0,1-2.25,3,10.62,10.62,0,0,1-3.47,2.05,13.57,13.57,0,0,1-8.91,0,10.64,10.64,0,0,1-3.46-2.05,9.37,9.37,0,0,1-2.25-3A8.74,8.74,0,0,1,162.83,66.6Zm13.32,0a2,2,0,0,0-.7-1.6,2.54,2.54,0,0,0-3.28,0,2.17,2.17,0,0,0,0,3.19,2.54,2.54,0,0,0,3.28,0A2,2,0,0,0,176.15,66.6Z" transform="translate(-36.24 -18.94)" style="fill:#3f76aa"/><path d="M197.21,57.89a2.84,2.84,0,0,1,1.35-.68,8.81,8.81,0,0,1,1.89-.18h1.8l0.72,0L201.53,65a6.63,6.63,0,0,0-.87-0.36,8.25,8.25,0,0,0-.83-0.25,3.39,3.39,0,0,0-.83-0.11,3,3,0,0,0-2.3,1,4.2,4.2,0,0,0-.94,2.93v7.92h-8.64V57.06h8.28l0.72,2.16A6.25,6.25,0,0,1,197.21,57.89Z" transform="translate(-36.24 -18.94)" style="fill:#3f76aa"/><path d="M202.79,66.6a12.31,12.31,0,0,1,.63-4.09,9.28,9.28,0,0,1,1.67-3,7.1,7.1,0,0,1,2.41-1.85,6.7,6.7,0,0,1,2.84-.63,5.57,5.57,0,0,1,2.3.43,7.23,7.23,0,0,1,1.55.92,7.74,7.74,0,0,1,1.19,1.31V49.5H224V76.14h-7.92L215.39,74a6.31,6.31,0,0,1-1.19,1.08,7.21,7.21,0,0,1-1.55.72,7.07,7.07,0,0,1-2.3.33,6.7,6.7,0,0,1-2.84-.63,7.09,7.09,0,0,1-2.41-1.85,9.3,9.3,0,0,1-1.67-3A12.27,12.27,0,0,1,202.79,66.6Zm9,0.24a2.92,2.92,0,0,0,.58,2,1.84,1.84,0,0,0,2.81,0,3.7,3.7,0,0,0,0-4,1.84,1.84,0,0,0-2.81,0A2.92,2.92,0,0,0,211.79,66.84Z" transform="translate(-36.24 -18.94)" style="fill:#3f76aa"/><path d="M243.11,70.32a4.87,4.87,0,0,1-.54,2.26,5.44,5.44,0,0,1-1.6,1.86,8.21,8.21,0,0,1-2.65,1.27,14.82,14.82,0,0,1-7.6-.05,14.92,14.92,0,0,1-2.81-1.17,9.91,9.91,0,0,1-2.27-1.73l2.7-4.1a6.73,6.73,0,0,0,1.22.79A8,8,0,0,0,231,70a6.65,6.65,0,0,0,1.85.24,1,1,0,0,0,.65-0.2,0.59,0.59,0,0,0,.25-0.47,0.7,0.7,0,0,0-.52-0.47q-0.52-.23-1.3-0.53t-1.69-.72a7.32,7.32,0,0,1-1.69-1.07,5.55,5.55,0,0,1-1.3-1.61,4.71,4.71,0,0,1-.52-2.29,4.88,4.88,0,0,1,.54-2.26,5.44,5.44,0,0,1,1.6-1.86,8.2,8.2,0,0,1,2.65-1.27,13,13,0,0,1,3.67-.47,10.38,10.38,0,0,1,3.29.49,15.05,15.05,0,0,1,2.5,1.06,10.59,10.59,0,0,1,2.12,1.51l-2.7,4.17a6,6,0,0,0-1-.64,5.81,5.81,0,0,0-1.1-.45A4.59,4.59,0,0,0,237,63a1,1,0,0,0-.65.2,0.59,0.59,0,0,0-.25.47,0.66,0.66,0,0,0,.52.49l1.3,0.52q0.77,0.3,1.69.72a7.35,7.35,0,0,1,1.69,1.07A5.57,5.57,0,0,1,242.59,68,4.71,4.71,0,0,1,243.11,70.32Z" transform="translate(-36.24 -18.94)" style="fill:#3f76aa"/><path d="M40.16,71.57l0.58-.2c0.37-.14.93-0.31,1.65-0.53a41.32,41.32,0,0,1,6.05-1.23,56.29,56.29,0,0,1,8.74-.43,83.31,83.31,0,0,1,10,.85c1.69,0.25,3.38.53,5,.87,0.83,0.17,1.65.37,2.46,0.59a10.1,10.1,0,0,1,2.48,1,4.3,4.3,0,0,1,1.19,1,2.28,2.28,0,0,1,.54,1.93,2.67,2.67,0,0,1-.94,1.46,5.68,5.68,0,0,1-1.11.72,15.27,15.27,0,0,1-4.15,1.25,34.57,34.57,0,0,1-6.22.44c-1.5,0-2.35-.09-2.35-0.09v-0.2l2.3-.38c1.45-.28,3.54-0.61,5.93-1.28a16,16,0,0,0,3.59-1.39,3.77,3.77,0,0,0,.71-0.52,0.83,0.83,0,0,0,.27-0.4,0.42,0.42,0,0,0-.13-0.2,2.81,2.81,0,0,0-.66-0.49,21.61,21.61,0,0,0-4.35-1.47c-1.58-.44-3.22-0.81-4.87-1.13a73.56,73.56,0,0,0-18.39-1.33,40.81,40.81,0,0,0-6,.85c-0.71.17-1.28,0.31-1.66,0.42l-0.59.17Z" transform="translate(-36.24 -18.94)" style="fill:#3f76aa"/><path d="M65.68,77.51l-0.27.07c-0.18,0-.42.13-0.76,0.19a24.24,24.24,0,0,1-2.79.41c-1.16.1-2.51,0.19-4,.19s-3,0-4.56-.15a36.72,36.72,0,0,1-4.61-.56,6.55,6.55,0,0,1-2.19-.85,3.16,3.16,0,0,1-1-.95,1.79,1.79,0,0,1-.15-1.73,2.7,2.7,0,0,1,1.67-1.27,5.88,5.88,0,0,1,1.29-.25,5.6,5.6,0,0,1,1.12,0l0,0.19-0.91.57c-0.28.18-.62,0.39-1,0.65a1.52,1.52,0,0,0-.63.77s0-.11.1,0a3.5,3.5,0,0,0,.46.3,11.67,11.67,0,0,0,1.65.68,26.58,26.58,0,0,0,4.26,1,66.59,66.59,0,0,0,8.32.78c1.14,0,2.09,0,2.75-.07,0.33,0,.6-0.07.77-0.09l0.27,0Z" transform="translate(-36.24 -18.94)" style="fill:#3f76aa"/><path d="M79.64,73l0.54,0.25a7.57,7.57,0,0,1,1.45.93,3,3,0,0,1,.8,1,1.82,1.82,0,0,1,0,1.56,5.62,5.62,0,0,1-2.65,2.35,30.34,30.34,0,0,1-8.23,2.52,80.11,80.11,0,0,1-9.77,1.11,77.15,77.15,0,0,1-9.84,0,42.71,42.71,0,0,1-8.51-1.5,17.26,17.26,0,0,1-5.59-2.61,7.34,7.34,0,0,1-1.27-1.2l-0.36-.5,0.16-.13,0.45,0.38a8.5,8.5,0,0,0,1.39.86,15.77,15.77,0,0,0,2.37.9,29,29,0,0,0,3.22.76c1.2,0.22,2.51.4,3.9,0.56s2.87,0.27,4.4.39c3.06,0.23,6.34.43,9.63,0.39a78.58,78.58,0,0,0,9.63-.66,32.47,32.47,0,0,0,8.11-2,5.1,5.1,0,0,0,2.5-1.9,1.76,1.76,0,0,0-.6-2.08,7.26,7.26,0,0,0-1.32-1l-0.52-.29Z" transform="translate(-36.24 -18.94)" style="fill:#3f76aa"/><path d="M61.21,66.55" transform="translate(-36.24 -18.94)" style="fill:#062332"/><path d="M99,19L99.16,59a8.78,8.78,0,0,1-.81,3.73,9.33,9.33,0,0,1-2.25,3,10.62,10.62,0,0,1-3.46,2.05,12.62,12.62,0,0,1-4.46.76,12.47,12.47,0,0,1-4.46-.76,10.52,10.52,0,0,1-3.46-2.05,9.33,9.33,0,0,1-2.25-3,9,9,0,0,1,0-7.46,9.35,9.35,0,0,1,2.25-3,10.53,10.53,0,0,1,3.46-2,12.46,12.46,0,0,1,4.46-.76,12.61,12.61,0,0,1,4.46.76,10.63,10.63,0,0,1,3.46,2c0.07,0.05.12,0.11,0.18,0.16V28.12L70.21,34V66.55a8.77,8.77,0,0,1-.81,3.73,9.31,9.31,0,0,1-2.25,3,10.54,10.54,0,0,1-3.47,2,13.43,13.43,0,0,1-8.91,0,10.52,10.52,0,0,1-3.46-2,9.34,9.34,0,0,1-2.25-3,9,9,0,0,1,0-7.46,9.34,9.34,0,0,1,2.25-3,10.52,10.52,0,0,1,3.46-2.05,13.44,13.44,0,0,1,8.91,0,10.54,10.54,0,0,1,3.47,2.05l0.18,0.4V25.63Z" transform="translate(-36.24 -18.94)" style="fill:#012"/><path d="M90.16,59" transform="translate(-36.24 -18.94)" style="fill:#062332"/></svg>