<svg xmlns="http://www.w3.org/2000/svg" viewBox="0 0 120 120"><title>wr-logo</title><path d="M40.16,81.57l0.57-.2c0.37-.14.93-0.31,1.65-0.53a41.29,41.29,0,0,1,6.06-1.23,56.31,56.31,0,0,1,8.74-.43,83.36,83.36,0,0,1,10,.85c1.69,0.25,3.38.53,5,.87,0.83,0.17,1.65.37,2.46,0.59a10.09,10.09,0,0,1,2.48,1,4.31,4.31,0,0,1,1.19,1,2.28,2.28,0,0,1,.54,1.93,2.67,2.67,0,0,1-.94,1.46,5.67,5.67,0,0,1-1.11.72,15.29,15.29,0,0,1-4.15,1.25,34.57,34.57,0,0,1-6.22.44c-1.5,0-2.35-.09-2.35-0.09v-0.2l2.3-.38c1.45-.28,3.54-0.61,5.93-1.28a16,16,0,0,0,3.59-1.39,3.77,3.77,0,0,0,.71-0.52,0.83,0.83,0,0,0,.27-0.4,0.42,0.42,0,0,0-.13-0.2,2.85,2.85,0,0,0-.66-0.49,21.68,21.68,0,0,0-4.35-1.47c-1.59-.44-3.22-0.81-4.87-1.13a73.55,73.55,0,0,0-18.39-1.33,40.76,40.76,0,0,0-6,.85c-0.72.17-1.28,0.31-1.66,0.42l-0.59.17Z" style="fill:#0051a2"/><path d="M65.68,87.51l-0.27.07c-0.18,0-.42.13-0.76,0.19a24.12,24.12,0,0,1-2.79.41c-1.16.1-2.51,0.19-4,.19s-3,0-4.55-.15a36.69,36.69,0,0,1-4.61-.56,6.55,6.55,0,0,1-2.19-.85,3.14,3.14,0,0,1-1-.95,1.79,1.79,0,0,1-.15-1.72,2.7,2.7,0,0,1,1.67-1.27,5.87,5.87,0,0,1,1.29-.25,5.61,5.61,0,0,1,1.12,0l0,0.19-0.91.57c-0.28.18-.62,0.39-1,0.65a1.51,1.51,0,0,0-.63.77s0-.11.1,0a3.56,3.56,0,0,0,.46.3,11.68,11.68,0,0,0,1.65.68,26.56,26.56,0,0,0,4.26,1,66.53,66.53,0,0,0,8.32.78c1.14,0,2.09,0,2.75-.07,0.33,0,.59-0.07.77-0.09l0.27,0Z" style="fill:#0051a2"/><path d="M79.64,83l0.54,0.25a7.54,7.54,0,0,1,1.45.93,3,3,0,0,1,.8,1,1.82,1.82,0,0,1,0,1.56,5.62,5.62,0,0,1-2.64,2.35,30.33,30.33,0,0,1-8.23,2.52,80.07,80.07,0,0,1-9.77,1.11,77.08,77.08,0,0,1-9.84,0,42.72,42.72,0,0,1-8.51-1.49,17.26,17.26,0,0,1-5.59-2.61,7.3,7.3,0,0,1-1.27-1.2l-0.36-.5,0.16-.13,0.45,0.38a8.45,8.45,0,0,0,1.39.86,15.74,15.74,0,0,0,2.37.9,29,29,0,0,0,3.22.76c1.2,0.22,2.51.4,3.9,0.56s2.87,0.27,4.4.39c3.06,0.23,6.34.43,9.63,0.39a78.48,78.48,0,0,0,9.63-.66,32.47,32.47,0,0,0,8.11-2,5.1,5.1,0,0,0,2.5-1.9,1.76,1.76,0,0,0-.6-2.08,7.28,7.28,0,0,0-1.32-1l-0.52-.29Z" style="fill:#0051a2"/><path d="M99,29L99.16,69a8.78,8.78,0,0,1-.81,3.73,9.33,9.33,0,0,1-2.25,3,10.62,10.62,0,0,1-3.46,2.05,12.62,12.62,0,0,1-4.46.76,12.47,12.47,0,0,1-4.46-.76,10.52,10.52,0,0,1-3.46-2.05,9.33,9.33,0,0,1-2.25-3,9,9,0,0,1,0-7.46,9.35,9.35,0,0,1,2.25-3,10.53,10.53,0,0,1,3.46-2,12.46,12.46,0,0,1,4.46-.76,12.61,12.61,0,0,1,4.46.76,10.63,10.63,0,0,1,3.46,2c0.07,0.05.12,0.11,0.18,0.16V38.12L70.21,44V76.55a8.77,8.77,0,0,1-.81,3.73,9.31,9.31,0,0,1-2.25,3,10.54,10.54,0,0,1-3.47,2,13.43,13.43,0,0,1-8.91,0,10.52,10.52,0,0,1-3.46-2,9.34,9.34,0,0,1-2.25-3,9,9,0,0,1,0-7.46,9.34,9.34,0,0,1,2.25-3,10.52,10.52,0,0,1,3.46-2.05,13.44,13.44,0,0,1,8.91,0,10.54,10.54,0,0,1,3.47,2.05l0.18,0.4V35.63Z" style="fill:#012"/></svg>